<svg width="234" height="46" viewBox="0 0 234 46" fill="none" xmlns="http://www.w3.org/2000/svg">
<path d="M60.5641 12.2978V39.1588H55.5043V12.2978H47.2343V7.9983H68.7916V12.2978H60.5641Z" fill="white"/>
<path d="M73.3199 22.1951C73.8159 20.8612 74.4679 19.875 75.2758 19.2365C76.0978 18.598 77.1112 18.2787 78.3159 18.2787C78.9679 18.2787 79.6056 18.3568 80.2293 18.5128C80.867 18.6689 81.4907 18.896 82.1001 19.1939L80.4419 23.1103C80.045 22.8265 79.6127 22.6207 79.145 22.493C78.6915 22.3511 78.1812 22.2802 77.6143 22.2802C76.0836 22.2802 74.9852 22.8974 74.3191 24.1319C73.653 25.3523 73.3199 27.4098 73.3199 30.3044V39.1588H68.7065V18.9385H73.3199V22.1951Z" fill="white"/>
<path d="M103.7 39.1588H99.0865V36.5408C98.2645 37.7044 97.3007 38.5699 96.1952 39.1375C95.1039 39.7051 93.8496 39.9889 92.4323 39.9889C89.5835 39.9889 87.3371 39.0169 85.693 37.0729C84.0631 35.1147 83.2481 32.44 83.2481 29.0487C83.2481 25.8276 84.0843 23.2309 85.7568 21.2585C87.4292 19.272 89.6118 18.2787 92.3047 18.2787C93.9488 18.2787 95.3519 18.6264 96.5141 19.3216C97.6905 20.0028 98.548 20.9889 99.0865 22.2802V18.9811H103.7V39.1588ZM99.2141 29.0061C99.2141 26.9202 98.7251 25.2955 97.7472 24.1319C96.7834 22.9684 95.4299 22.3866 93.6866 22.3866C91.9433 22.3866 90.5685 22.9897 89.5622 24.1958C88.5701 25.3877 88.0741 27.0479 88.0741 29.1764C88.0741 31.319 88.5559 32.9721 89.5197 34.1357C90.4835 35.2992 91.8441 35.881 93.6015 35.881C95.2598 35.881 96.6062 35.2495 97.6409 33.9867C98.6897 32.7238 99.2141 31.0636 99.2141 29.0061Z" fill="white"/>
<path d="M117.157 40.372L106.591 18.9811H111.63L116.03 29.1338C116.172 29.446 116.342 29.9142 116.541 30.5386C116.739 31.1629 116.945 31.9079 117.157 32.7734C117.299 32.1633 117.462 31.5602 117.646 30.9643C117.845 30.3541 118.078 29.744 118.348 29.1338L122.727 18.9811H127.744L117.157 40.372Z" fill="white"/>
<path d="M150.067 29.751H133.952C134.066 31.6383 134.626 33.114 135.632 34.1782C136.638 35.2283 137.977 35.7533 139.65 35.7533C141.138 35.7533 142.378 35.4411 143.37 34.8168C144.362 34.1924 145.227 33.1849 145.964 31.7944L149.854 33.9654C148.721 35.9945 147.317 37.5057 145.645 38.499C143.973 39.4922 142.01 39.9889 139.756 39.9889C136.525 39.9889 133.952 39.0027 132.039 37.0303C130.126 35.058 129.169 32.4258 129.169 29.1338C129.169 25.9695 130.154 23.3728 132.124 21.3437C134.108 19.3004 136.652 18.2787 139.756 18.2787C143.002 18.2787 145.532 19.2081 147.346 21.067C149.16 22.9258 150.067 25.5296 150.067 28.8784V29.751ZM145.284 26.6435C145.099 25.1962 144.547 24.0965 143.625 23.3444C142.704 22.5782 141.443 22.1951 139.841 22.1951C138.325 22.1951 137.106 22.564 136.185 23.3018C135.263 24.0397 134.618 25.1536 134.25 26.6435H145.284Z" fill="white"/>
<path d="M155.106 39.1588V6.16783H159.719V39.1588H155.106Z" fill="white"/>
<path d="M166.543 39.1588V6.16783H171.157V39.1588H166.543Z" fill="white"/>
<path d="M177.364 10.2545C177.364 9.47402 177.648 8.80001 178.215 8.23243C178.796 7.66484 179.483 7.38105 180.277 7.38105C181.099 7.38105 181.779 7.65775 182.318 8.21114C182.871 8.75035 183.147 9.43145 183.147 10.2545C183.147 11.0775 182.871 11.7727 182.318 12.3403C181.765 12.8937 181.085 13.1704 180.277 13.1704C179.483 13.1704 178.796 12.8866 178.215 12.319C177.648 11.7373 177.364 11.0491 177.364 10.2545ZM177.981 39.1588V18.9811H182.594V39.1588H177.981Z" fill="white"/>
<path d="M208.17 39.1588H203.556V36.5408C202.734 37.7044 201.77 38.5699 200.665 39.1375C199.574 39.7051 198.319 39.9889 196.902 39.9889C194.053 39.9889 191.807 39.0169 190.163 37.0729C188.533 35.1147 187.718 32.44 187.718 29.0487C187.718 25.8276 188.554 23.2309 190.226 21.2585C191.899 19.272 194.082 18.2787 196.774 18.2787C198.419 18.2787 199.822 18.6264 200.984 19.3216C202.16 20.0028 203.018 20.9889 203.556 22.2802V18.9811H208.17V39.1588ZM203.684 29.0061C203.684 26.9202 203.195 25.2955 202.217 24.1319C201.253 22.9684 199.9 22.3866 198.156 22.3866C196.413 22.3866 195.038 22.9897 194.032 24.1958C193.04 25.3877 192.544 27.0479 192.544 29.1764C192.544 31.319 193.026 32.9721 193.989 34.1357C194.953 35.2992 196.314 35.881 198.071 35.881C199.73 35.881 201.076 35.2495 202.111 33.9867C203.159 32.7238 203.684 31.0636 203.684 29.0061Z" fill="white"/>
<path d="M214.547 39.1588V18.9811H218.884V22.2802C219.806 20.8896 220.89 19.875 222.137 19.2365C223.384 18.598 224.901 18.2787 226.687 18.2787C228.189 18.2787 229.465 18.5199 230.513 19.0024C231.576 19.4706 232.406 20.173 233.001 21.1095C233.355 21.6629 233.61 22.3086 233.766 23.0464C233.922 23.7843 234 25.0756 234 26.9202V39.1588H229.344V28.7932C229.344 26.1398 229.018 24.3803 228.366 23.5147C227.728 22.6349 226.587 22.1951 224.943 22.1951C223.866 22.1951 222.902 22.3937 222.052 22.791C221.216 23.1883 220.557 23.7488 220.075 24.4725C219.735 24.9549 219.494 25.5793 219.352 26.3455C219.225 27.0976 219.161 28.3037 219.161 29.9639V39.1588H214.547Z" fill="white"/>
<path d="M14.443 33.2473L20.3596 39.0799L26.2762 33.2473L20.3596 27.4147L14.443 33.2473ZM20.3596 4.94079V4.94956C18.6662 4.94956 16.9728 5.58691 15.6827 6.85869L15.6768 6.85284C14.3896 8.12462 13.7431 9.79693 13.7431 11.4692C13.7431 13.1445 14.3867 14.8139 15.6708 16.0798H15.6797L20.3596 20.6903L25.0366 16.0798H25.0455C26.3385 14.8051 26.985 13.1357 26.985 11.4692H26.9761C26.9761 9.79985 26.3296 8.13046 25.0395 6.85869C23.7405 5.58107 22.0471 4.94079 20.3596 4.94079ZM29.6868 36.6095L22.0649 44.1232L20.3596 45.8042L18.6543 44.1232L11.0325 36.6095L3.41057 44.1232L0 40.761L16.952 24.0525L12.2751 19.442L12.281 19.4361C10.0419 17.2317 8.92383 14.3461 8.92383 11.4692C8.92383 8.58947 10.0419 5.70678 12.2751 3.50529V3.49945C14.5083 1.29796 17.4354 0.195755 20.3596 0.195755V0.204526C23.2898 0.204526 26.2199 1.30381 28.4471 3.49945C30.6803 5.70093 31.7954 8.58655 31.7954 11.4722H31.7865C31.7865 14.3549 30.6714 17.2375 28.4412 19.439L28.4471 19.4449L23.7702 24.0525L40.7193 40.761L37.3087 44.1232L29.6868 36.6095Z" fill="white"/>
</svg>
